<svg xmlns="http://www.w3.org/2000/svg" viewBox="0 0 700 195" role="img" aria-labelledby="title"><title id="title">Rehan&#x27;s contribution activity</title><rect width="700" height="195" rx="8" fill="#0d1117"/><g font-family="system-ui, sans-serif" fill="#c9d1d9"><text x="20" y="26" font-size="14" fill="#58a6ff">contributions / last 31 days</text><text x="20" y="53" font-size="10" fill="#c9d1d9">9</text><text x="20" y="133" font-size="10" fill="#c9d1d9">0</text><path d="M48 50H680 M48 130H680" stroke="#30363d"/><polyline points="48.0,94.4 69.1,130.0 90.1,130.0 111.2,130.0 132.3,130.0 153.3,130.0 174.4,130.0 195.5,130.0 216.5,130.0 237.6,130.0 258.7,130.0 279.7,130.0 300.8,130.0 321.9,67.8 342.9,121.1 364.0,130.0 385.1,112.2 406.1,130.0 427.2,130.0 448.3,130.0 469.3,130.0 490.4,130.0 511.5,130.0 532.5,130.0 553.6,130.0 574.7,130.0 595.7,130.0 616.8,130.0 637.9,50.0 658.9,76.7 680.0,103.3" fill="none" stroke="#58a6ff" stroke-width="2"/><circle cx="48.0" cy="94.4" r="2" fill="#79c0ff"><title>2026-08-29: 4 contributions</title></circle><circle cx="69.1" cy="130.0" r="2" fill="#79c0ff"><title>2026-08-30: 0 contributions</title></circle><circle cx="90.1" cy="130.0" r="2" fill="#79c0ff"><title>2026-08-31: 0 contributions</title></circle><circle cx="111.2" cy="130.0" r="2" fill="#79c0ff"><title>2026-09-01: 0 contributions</title></circle><circle cx="132.3" cy="130.0" r="2" fill="#79c0ff"><title>2026-09-02: 0 contributions</title></circle><circle cx="153.3" cy="130.0" r="2" fill="#79c0ff"><title>2026-09-03: 0 contributions</title></circle><circle cx="174.4" cy="130.0" r="2" fill="#79c0ff"><title>2026-09-04: 0 contributions</title></circle><circle cx="195.5" cy="130.0" r="2" fill="#79c0ff"><title>2026-09-05: 0 contributions</title></circle><circle cx="216.5" cy="130.0" r="2" fill="#79c0ff"><title>2026-09-06: 0 contributions</title></circle><circle cx="237.6" cy="130.0" r="2" fill="#79c0ff"><title>2026-09-07: 0 contributions</title></circle><circle cx="258.7" cy="130.0" r="2" fill="#79c0ff"><title>2026-09-08: 0 contributions</title></circle><circle cx="279.7" cy="130.0" r="2" fill="#79c0ff"><title>2026-09-09: 0 contributions</title></circle><circle cx="300.8" cy="130.0" r="2" fill="#79c0ff"><title>2026-09-10: 0 contributions</title></circle><circle cx="321.9" cy="67.8" r="2" fill="#79c0ff"><title>2026-09-11: 7 contributions</title></circle><circle cx="342.9" cy="121.1" r="2" fill="#79c0ff"><title>2026-09-12: 1 contributions</title></circle><circle cx="364.0" cy="130.0" r="2" fill="#79c0ff"><title>2026-09-13: 0 contributions</title></circle><circle cx="385.1" cy="112.2" r="2" fill="#79c0ff"><title>2026-09-14: 2 contributions</title></circle><circle cx="406.1" cy="130.0" r="2" fill="#79c0ff"><title>2026-09-15: 0 contributions</title></circle><circle cx="427.2" cy="130.0" r="2" fill="#79c0ff"><title>2026-09-16: 0 contributions</title></circle><circle cx="448.3" cy="130.0" r="2" fill="#79c0ff"><title>2026-09-17: 0 contributions</title></circle><circle cx="469.3" cy="130.0" r="2" fill="#79c0ff"><title>2026-09-18: 0 contributions</title></circle><circle cx="490.4" cy="130.0" r="2" fill="#79c0ff"><title>2026-09-19: 0 contributions</title></circle><circle cx="511.5" cy="130.0" r="2" fill="#79c0ff"><title>2026-09-20: 0 contributions</title></circle><circle cx="532.5" cy="130.0" r="2" fill="#79c0ff"><title>2026-09-21: 0 contributions</title></circle><circle cx="553.6" cy="130.0" r="2" fill="#79c0ff"><title>2026-09-22: 0 contributions</title></circle><circle cx="574.7" cy="130.0" r="2" fill="#79c0ff"><title>2026-09-23: 0 contributions</title></circle><circle cx="595.7" cy="130.0" r="2" fill="#79c0ff"><title>2026-09-24: 0 contributions</title></circle><circle cx="616.8" cy="130.0" r="2" fill="#79c0ff"><title>2026-09-25: 0 contributions</title></circle><circle cx="637.9" cy="50.0" r="2" fill="#79c0ff"><title>2026-09-26: 9 contributions</title></circle><circle cx="658.9" cy="76.7" r="2" fill="#79c0ff"><title>2026-09-27: 6 contributions</title></circle><circle cx="680.0" cy="103.3" r="2" fill="#79c0ff"><title>2026-09-28: 3 contributions</title></circle><text x="48" y="153" font-size="10" fill="#c9d1d9">2026-08-29</text><text x="610" y="153" font-size="10" fill="#c9d1d9">2026-09-28</text><text x="20" y="180" font-size="10" fill="#c9d1d9">32 contributions · Updated 2026-09-28 UTC</text></g></svg>
